<svg width="35" height="35" viewBox="0 0 35 35" fill="none" xmlns="http://www.w3.org/2000/svg">
<path d="M13.6719 0H2.73438C1.22664 0 0 1.22664 0 2.73438V18.0469C0 19.5546 1.22664 20.7812 2.73438 20.7812H13.6719C15.1796 20.7812 16.4062 19.5546 16.4062 18.0469V2.73438C16.4062 1.22664 15.1796 0 13.6719 0ZM15.3125 18.0469C15.3125 18.9515 14.5765 19.6875 13.6719 19.6875H2.73438C1.82971 19.6875 1.09375 18.9515 1.09375 18.0469V2.73438C1.09375 1.82978 1.82971 1.09375 2.73438 1.09375H13.6719C14.5765 1.09375 15.3125 1.82978 15.3125 2.73438V18.0469Z" fill="black"/>
<path d="M13.6719 22.9688H2.73438C1.22664 22.9688 0 24.1954 0 25.7031V32.2656C0 33.7734 1.22664 35 2.73438 35H13.6719C15.1796 35 16.4062 33.7734 16.4062 32.2656V25.7031C16.4062 24.1954 15.1796 22.9688 13.6719 22.9688ZM15.3125 32.2656C15.3125 33.1702 14.5765 33.9062 13.6719 33.9062H2.73438C1.82971 33.9062 1.09375 33.1702 1.09375 32.2656V25.7031C1.09375 24.7985 1.82971 24.0625 2.73438 24.0625H13.6719C14.5765 24.0625 15.3125 24.7985 15.3125 25.7031V32.2656Z" fill="black"/>
<path d="M35 32.2656V16.9531C35 15.4454 33.7734 14.2188 32.2656 14.2188H21.3281C19.8204 14.2188 18.5938 15.4454 18.5938 16.9531V32.2656C18.5938 33.7734 19.8204 35 21.3281 35H32.2656C33.7734 35 35 33.7734 35 32.2656ZM33.9062 32.2656C33.9062 33.1702 33.1703 33.9062 32.2656 33.9062H21.3281C20.4235 33.9062 19.6875 33.1702 19.6875 32.2656V16.9531C19.6875 16.0485 20.4235 15.3125 21.3281 15.3125H32.2656C33.1703 15.3125 33.9062 16.0485 33.9062 16.9531V32.2656Z" fill="black"/>
<path d="M35 9.29688V2.73438C35 1.22664 33.7734 0 32.2656 0H21.3281C19.8204 0 18.5938 1.22664 18.5938 2.73438V9.29688C18.5938 10.8046 19.8204 12.0312 21.3281 12.0312H32.2656C33.7734 12.0312 35 10.8046 35 9.29688ZM33.9062 9.29688C33.9062 10.2015 33.1703 10.9375 32.2656 10.9375H21.3281C20.4235 10.9375 19.6875 10.2015 19.6875 9.29688V2.73438C19.6875 1.82978 20.4235 1.09375 21.3281 1.09375H32.2656C33.1703 1.09375 33.9062 1.82978 33.9062 2.73438V9.29688Z" fill="black"/>
</svg>
