<svg width="30" height="30" viewBox="0 0 30 30" fill="none" xmlns="http://www.w3.org/2000/svg">
<path d="M9.90234 15C9.90234 13.5137 10.2607 12.1213 10.8832 10.9291V5.87198H6.45821C4.70197 8.4787 3.75 11.6556 3.75 15C3.75 18.3444 4.70197 21.5213 6.45821 24.128H10.8832V19.0709C10.2607 17.8787 9.90234 16.4864 9.90234 15Z" fill="#FBBD00"/>
<path d="M16.875 22.9687L13.7988 26.4844L16.875 30C19.8014 30 22.5811 28.912 24.862 26.9049V21.8532H20.4418C19.3895 22.5672 18.166 22.9687 16.875 22.9687Z" fill="#0F9D58"/>
<path d="M10.8832 19.0709L6.45821 24.128C6.80592 24.6441 7.18455 25.1384 7.59424 25.6066C10.0732 28.4397 13.3692 30 16.875 30V22.9688C14.3308 22.9688 12.1009 21.4031 10.8832 19.0709Z" fill="#31AA52"/>
<path d="M30 15C30 14.0874 29.9277 13.1731 29.7851 12.2826L29.6697 11.562H16.875V18.5932H23.1018C22.4971 19.9679 21.5674 21.0894 20.4417 21.8532L24.862 26.905C25.3136 26.5076 25.746 26.0749 26.1558 25.6066C28.6347 22.7734 30 19.0066 30 15Z" fill="#3C79E6"/>
<path d="M21.8054 9.36521L22.3492 9.98666L26.6996 5.01486L26.1558 4.39342C23.6768 1.56029 20.3809 0 16.875 0L13.7988 3.51562L16.875 7.03125C18.7374 7.03125 20.4884 7.86012 21.8054 9.36521Z" fill="#CF2D48"/>
<path d="M16.875 7.03125V0C13.3692 0 10.0732 1.56029 7.5942 4.39336C7.18451 4.86158 6.80588 5.35582 6.45817 5.87197L10.8831 10.9291C12.1009 8.59687 14.3308 7.03125 16.875 7.03125Z" fill="#EB4132"/>
</svg>
