<svg width="32" height="33" viewBox="0 0 32 33" fill="none" xmlns="http://www.w3.org/2000/svg">
<path d="M11.7333 26.4679H7.46668C7.32523 26.4679 7.18958 26.5156 7.08956 26.6006C6.98954 26.6855 6.93335 26.8007 6.93335 26.9208C6.93335 27.041 6.98954 27.1562 7.08956 27.2411C7.18958 27.326 7.32523 27.3738 7.46668 27.3738H11.7333C11.8748 27.3738 12.0104 27.326 12.1104 27.2411C12.2104 27.1562 12.2666 27.041 12.2666 26.9208C12.2666 26.8007 12.2104 26.6855 12.1104 26.6006C12.0104 26.5156 11.8748 26.4679 11.7333 26.4679Z" fill="white"/>
<path d="M30.1333 10.4576H19.2V2.45757C19.1995 1.97864 19.0026 1.51947 18.6527 1.18081C18.3027 0.842145 17.8282 0.651652 17.3333 0.651123H1.86667C1.37176 0.651652 0.897288 0.842145 0.547338 1.18081C0.197389 1.51947 0.00054702 1.97864 0 2.45757V30.8447C0.00054702 31.3236 0.197389 31.7828 0.547338 32.1214C0.897288 32.4601 1.37176 32.6506 1.86667 32.6511H17.3333C17.8282 32.6506 18.3027 32.4601 18.6527 32.1214C19.0026 31.7828 19.1995 31.3236 19.2 30.8447V23.3608H30.1333C30.6282 23.3603 31.1027 23.1698 31.4527 22.8311C31.8026 22.4925 31.9995 22.0333 32 21.5543V12.264C31.9995 11.7851 31.8026 11.3259 31.4527 10.9873C31.1027 10.6486 30.6282 10.4581 30.1333 10.4576ZM12.1167 1.68338L11.85 2.71564H7.35L7.08333 1.68338H12.1167ZM18.1333 30.8447C18.1332 31.0499 18.0488 31.2468 17.8988 31.3919C17.7488 31.5371 17.5455 31.6187 17.3333 31.6189H1.86667C1.65455 31.6187 1.45117 31.5371 1.30118 31.3919C1.15119 31.2468 1.06684 31.0499 1.06667 30.8447V2.45757C1.06684 2.2523 1.15119 2.05548 1.30118 1.91033C1.45117 1.76517 1.65455 1.68355 1.86667 1.68338H5.98333L6.416 3.35693C6.44484 3.46859 6.51142 3.56771 6.60516 3.63855C6.69889 3.70939 6.8144 3.74788 6.93333 3.7479H12.2667C12.3856 3.74788 12.5011 3.70939 12.5948 3.63855C12.6886 3.56771 12.7552 3.46859 12.784 3.35693L13.2167 1.68338H17.3333C17.5455 1.68355 17.7488 1.76517 17.8988 1.91033C18.0488 2.05548 18.1332 2.2523 18.1333 2.45757V30.8447ZM19.2 18.1995H20.8V20.264H19.2V18.1995ZM30.9333 21.5543C30.9332 21.7596 30.8488 21.9564 30.6988 22.1016C30.5488 22.2467 30.3455 22.3284 30.1333 22.3285H19.2V21.2963H21.3333C21.4748 21.2963 21.6104 21.2419 21.7105 21.1451C21.8105 21.0483 21.8667 20.917 21.8667 20.7802V17.6834C21.8667 17.5465 21.8105 17.4152 21.7105 17.3184C21.6104 17.2216 21.4748 17.1673 21.3333 17.1673H19.2V15.6189H30.9333V21.5543ZM30.9333 14.5866H19.2V13.5543H30.9333V14.5866ZM30.9333 12.5221H19.2V11.4898H30.1333C30.3455 11.49 30.5488 11.5716 30.6988 11.7168C30.8488 11.8619 30.9332 12.0587 30.9333 12.264V12.5221Z" fill="white"/>
<path d="M29.3333 15.1447H24.5333C24.3919 15.1447 24.2562 15.1924 24.1562 15.2774C24.0562 15.3623 24 15.4775 24 15.5976C24 15.7178 24.0562 15.833 24.1562 15.9179C24.2562 16.0028 24.3919 16.0506 24.5333 16.0506H29.3333C29.4748 16.0506 29.6104 16.0028 29.7104 15.9179C29.8104 15.833 29.8666 15.7178 29.8666 15.5976C29.8666 15.4775 29.8104 15.3623 29.7104 15.2774C29.6104 15.1924 29.4748 15.1447 29.3333 15.1447Z" fill="white"/>
<path d="M29.3333 16.5035H24.5333C24.3919 16.5035 24.2562 16.5513 24.1562 16.6362C24.0562 16.7211 24 16.8363 24 16.9565C24 17.0766 24.0562 17.1918 24.1562 17.2767C24.2562 17.3617 24.3919 17.4094 24.5333 17.4094H29.3333C29.4748 17.4094 29.6104 17.3617 29.7104 17.2767C29.8104 17.1918 29.8666 17.0766 29.8666 16.9565C29.8666 16.8363 29.8104 16.7211 29.7104 16.6362C29.6104 16.5513 29.4748 16.5035 29.3333 16.5035Z" fill="white"/>
<path d="M29.3334 17.8623H27.2001C27.0586 17.8623 26.923 17.91 26.823 17.995C26.7229 18.0799 26.6667 18.1951 26.6667 18.3152C26.6667 18.4354 26.7229 18.5506 26.823 18.6355C26.923 18.7204 27.0586 18.7682 27.2001 18.7682H29.3334C29.4748 18.7682 29.6105 18.7204 29.7105 18.6355C29.8105 18.5506 29.8667 18.4354 29.8667 18.3152C29.8667 18.1951 29.8105 18.0799 29.7105 17.995C29.6105 17.91 29.4748 17.8623 29.3334 17.8623Z" fill="white"/>
<path d="M9.59993 9.25671C8.33414 9.25671 7.09677 9.57548 6.04429 10.1727C4.99182 10.7699 4.17152 11.6188 3.68712 12.6119C3.20272 13.605 3.07598 14.6978 3.32293 15.7522C3.56987 16.8065 4.17941 17.7749 5.07446 18.535C5.96952 19.2951 7.10988 19.8128 8.35136 20.0225C9.59283 20.2322 10.8797 20.1246 12.0491 19.7132C13.2185 19.3018 14.2181 18.6052 14.9213 17.7114C15.6246 16.8176 15.9999 15.7668 15.9999 14.6918C15.998 13.2508 15.3231 11.8693 14.1233 10.8504C12.9235 9.83148 11.2967 9.25833 9.59993 9.25671ZM9.59993 19.2211C8.5451 19.2211 7.51396 18.9554 6.6369 18.4578C5.75984 17.9601 5.07626 17.2527 4.67259 16.4251C4.26893 15.5975 4.16331 14.6868 4.3691 13.8082C4.57488 12.9296 5.08283 12.1226 5.82871 11.4892C6.57459 10.8557 7.52489 10.4244 8.55945 10.2496C9.59402 10.0748 10.6664 10.1645 11.6409 10.5073C12.6154 10.8501 13.4484 11.4307 14.0344 12.1755C14.6205 12.9203 14.9332 13.796 14.9332 14.6918C14.9316 15.8926 14.3692 17.0439 13.3694 17.893C12.3695 18.7421 11.0139 19.2197 9.59993 19.2211Z" fill="white"/>
<path d="M12.4229 13.0128L9.01663 15.9055L7.25336 14.7824C7.1402 14.7104 6.99796 14.6794 6.85794 14.6964C6.71791 14.7134 6.59156 14.7769 6.50669 14.873C6.42182 14.9691 6.38538 15.0899 6.40539 15.2088C6.42539 15.3277 6.5002 15.435 6.61336 15.5071L8.74669 16.8659C8.8494 16.9313 8.97644 16.9631 9.1045 16.9553C9.23256 16.9476 9.35305 16.9009 9.44383 16.8238L13.1772 13.6533C13.2772 13.5684 13.3334 13.4532 13.3334 13.3331C13.3334 13.2129 13.2772 13.0977 13.1772 13.0128C13.0771 12.9278 12.9415 12.8801 12.8 12.8801C12.6586 12.8801 12.5229 12.9278 12.4229 13.0128Z" fill="white"/>
</svg>
