<svg width="30" height="35" viewBox="0 0 30 35" fill="none" xmlns="http://www.w3.org/2000/svg">
<path d="M8.51036 30.9866C8.49997 30.9486 8.48262 30.9112 8.46095 30.8755C8.43928 30.8392 8.41242 30.8047 8.38115 30.7726C8.34997 30.7399 8.31351 30.7096 8.27361 30.6822C8.23372 30.6549 8.1895 30.6299 8.14177 30.6085C8.09491 30.5871 8.04462 30.5687 7.99177 30.5538C7.93972 30.5389 7.88511 30.5271 7.82963 30.5199C7.71777 30.5045 7.60327 30.5045 7.49142 30.5199C7.43593 30.5271 7.38132 30.5389 7.32927 30.5538C7.27634 30.5687 7.22605 30.5871 7.17928 30.6085C7.13154 30.6299 7.08733 30.6549 7.04743 30.6822C7.00753 30.7096 6.97116 30.7399 6.93989 30.7726C6.90871 30.8048 6.88176 30.8392 6.8601 30.8755C6.83843 30.9112 6.82108 30.9486 6.81069 30.9866C6.79941 31.0247 6.79333 31.0639 6.79333 31.1026C6.79333 31.1412 6.79941 31.1805 6.81069 31.2185C6.82108 31.2566 6.83843 31.294 6.8601 31.3297C6.88176 31.366 6.90863 31.4005 6.93989 31.4325C6.97107 31.4652 7.00753 31.4956 7.04743 31.5229C7.08733 31.5503 7.13154 31.5752 7.17928 31.5966C7.22614 31.618 7.27643 31.6365 7.32927 31.6513C7.38132 31.6662 7.43593 31.6781 7.49142 31.6852C7.54691 31.693 7.60415 31.6971 7.66052 31.6971C7.71689 31.6971 7.77414 31.693 7.82963 31.6852C7.88511 31.6781 7.93972 31.6662 7.99177 31.6513C8.04471 31.6365 8.095 31.6181 8.14177 31.5966C8.1895 31.5753 8.23372 31.5503 8.27361 31.5229C8.31351 31.4956 8.34997 31.4652 8.38115 31.4325C8.41233 31.4004 8.43928 31.3659 8.46095 31.3297C8.48262 31.294 8.49997 31.2566 8.51036 31.2185C8.52163 31.1805 8.52771 31.1412 8.52771 31.1026C8.52771 31.0639 8.52163 31.0247 8.51036 30.9866Z" fill="black"/>
<path d="M29.9311 29.3144C28.2696 25.8848 27.3913 22.0451 27.3913 18.2106V16.1539C27.3913 10.2668 23.5164 5.29683 18.2609 3.81568V3.3654C18.2609 1.50972 16.7981 0 15 0C13.2019 0 11.7391 1.50972 11.7391 3.3654V3.81568C6.48358 5.29676 2.60869 10.2667 2.60869 16.1539V18.2106C2.60869 22.0451 1.73039 25.8848 0.06885 29.3144C-0.0322268 29.523 -0.0214302 29.7709 0.097398 29.9692C0.21616 30.1677 0.426063 30.2885 0.652128 30.2885H9.84396C10.1562 32.9392 12.3486 35 15 35C17.6514 35 19.8437 32.9392 20.156 30.2885H29.3479C29.5739 30.2885 29.7838 30.1677 29.9026 29.9692C30.0214 29.7708 30.0322 29.523 29.9311 29.3144ZM13.0434 3.3654C13.0434 2.25196 13.9211 1.3462 14.9999 1.3462C16.0787 1.3462 16.9564 2.25203 16.9564 3.3654V3.52454C16.9412 3.52208 16.9258 3.51996 16.9105 3.5175C16.8834 3.51319 16.8563 3.50923 16.8292 3.50506C16.7639 3.49508 16.6985 3.48551 16.633 3.47662C16.5978 3.47184 16.5626 3.46712 16.5273 3.46261C16.4653 3.45475 16.4031 3.4475 16.3409 3.44053C16.3077 3.43684 16.2747 3.4328 16.2413 3.42938C16.1516 3.42016 16.0617 3.41188 15.9718 3.40464C15.9405 3.40218 15.909 3.4002 15.8776 3.39787C15.8131 3.39315 15.7485 3.38878 15.6838 3.38516C15.6478 3.38311 15.6118 3.3814 15.5757 3.37962C15.5111 3.37654 15.4465 3.37401 15.382 3.37203C15.3504 3.37101 15.3189 3.36991 15.2872 3.36916C15.1915 3.36697 15.0956 3.36547 14.9999 3.36547C14.9041 3.36547 14.8082 3.36697 14.7125 3.36923C14.6808 3.36998 14.6493 3.37114 14.6177 3.3721C14.553 3.37415 14.4885 3.37668 14.424 3.37969C14.388 3.3814 14.3519 3.38317 14.3158 3.38522C14.2512 3.38885 14.1866 3.39322 14.122 3.39794C14.0906 3.4002 14.0592 3.40211 14.0278 3.40464C13.9379 3.41188 13.848 3.42016 13.7583 3.42938C13.7251 3.4328 13.692 3.43684 13.6588 3.44053C13.5966 3.44743 13.5344 3.45475 13.4723 3.46261C13.437 3.46712 13.4018 3.47184 13.3667 3.47662C13.3012 3.48551 13.2359 3.49508 13.1705 3.50506C13.1433 3.50923 13.1162 3.51319 13.0891 3.5175C13.074 3.51989 13.0585 3.52201 13.0433 3.52447V3.3654H13.0434ZM15 33.6539C13.069 33.6539 11.462 32.1946 11.1597 30.2885H18.8403C18.538 32.1945 16.931 33.6539 15 33.6539ZM1.6829 28.9423C1.87565 28.4991 2.05601 28.05 2.22445 27.5962H5.86951C6.2297 27.5962 6.52167 27.2949 6.52167 26.9231C6.52167 26.5514 6.2297 26.2501 5.86951 26.2501H2.68373C3.49274 23.6569 3.91301 20.9326 3.91301 18.2107V16.1539C3.91301 10.6459 7.70373 6.0347 12.734 4.95223C12.7491 4.94901 12.7642 4.94553 12.7793 4.94231C12.8392 4.92967 12.8996 4.91812 12.9598 4.90649C13.0023 4.89836 13.0448 4.89009 13.0874 4.88243C13.1299 4.87478 13.1726 4.86767 13.2153 4.86049C13.2797 4.84976 13.3442 4.83943 13.4087 4.82986C13.4343 4.82604 13.4599 4.82241 13.4856 4.81879C13.5719 4.80669 13.6583 4.79534 13.745 4.78536C13.752 4.78454 13.7591 4.78365 13.7661 4.7829C14.5846 4.68986 15.4153 4.68986 16.2338 4.7829C16.2408 4.78372 16.248 4.78461 16.255 4.78536C16.3416 4.79541 16.428 4.80669 16.5144 4.81879C16.54 4.82241 16.5656 4.8261 16.5912 4.82986C16.6558 4.83943 16.7203 4.84976 16.7846 4.86049C16.8273 4.8676 16.87 4.87478 16.9125 4.88243C16.9552 4.89002 16.9976 4.89829 17.0401 4.90649C17.1004 4.91812 17.1608 4.92967 17.2206 4.94231C17.2357 4.94546 17.2508 4.94895 17.2659 4.95223C22.2961 6.0347 26.0869 10.6459 26.0869 16.1539V18.2107C26.0869 21.8938 26.8554 25.5812 28.317 28.9424H1.6829V28.9423Z" fill="black"/>
</svg>
