<svg width="35" height="35" viewBox="0 0 35 35" fill="none" xmlns="http://www.w3.org/2000/svg">
<path d="M17.4999 17.5451C7.85058 17.5451 0 25.0493 0 34.2727C0 34.6742 0.340892 35 0.760891 35C1.18089 35 1.52178 34.6742 1.52178 34.2727C1.52178 25.8507 8.68915 18.9997 17.5 18.9997C26.3108 18.9997 33.4782 25.8507 33.4782 34.2727C33.4782 34.6742 33.8191 35 34.2391 35C34.6591 35 35 34.6742 35 34.2727C34.9999 25.0478 27.1493 17.5451 17.4999 17.5451Z" fill="black"/>
<path d="M17.4999 0C12.886 0 9.1304 3.58841 9.1304 8.00014C9.1304 12.4119 12.8861 16.0003 17.4999 16.0003C22.1138 16.0003 25.8694 12.4119 25.8694 8.00014C25.8694 3.58841 22.1138 0 17.4999 0ZM17.4999 14.5457C13.7245 14.5457 10.6521 11.6089 10.6521 8.00014C10.6521 4.39134 13.7245 1.45455 17.4999 1.45455C21.2753 1.45455 24.3477 4.39134 24.3477 8.00014C24.3477 11.6089 21.2753 14.5457 17.4999 14.5457Z" fill="black"/>
</svg>
