<svg width="31" height="13" viewBox="0 0 31 13" fill="none" xmlns="http://www.w3.org/2000/svg">
<path d="M8.64844 0.625V8.39062C8.64323 9.15625 8.47396 9.82292 8.14062 10.3906C7.80729 10.9583 7.33594 11.3958 6.72656 11.7031C6.1224 12.0052 5.42708 12.1562 4.64062 12.1562C3.44271 12.1562 2.48177 11.8307 1.75781 11.1797C1.03906 10.5234 0.666667 9.61719 0.640625 8.46094V0.625H1.59375V8.32031C1.59375 9.27865 1.86719 10.0234 2.41406 10.5547C2.96094 11.0807 3.70312 11.3438 4.64062 11.3438C5.57812 11.3438 6.31771 11.0781 6.85938 10.5469C7.40625 10.0156 7.67969 9.27604 7.67969 8.32812V0.625H8.64844ZM19.5391 10.6484C19.2057 11.1224 18.6823 11.4922 17.9688 11.7578C17.2604 12.0234 16.4661 12.1562 15.5859 12.1562C14.6953 12.1562 13.9036 11.9427 13.2109 11.5156C12.5182 11.0885 11.9818 10.4844 11.6016 9.70312C11.2214 8.92188 11.0286 8.02604 11.0234 7.01562V5.57812C11.0234 4 11.4219 2.75521 12.2188 1.84375C13.0156 0.927083 14.0859 0.46875 15.4297 0.46875C16.6016 0.46875 17.5443 0.768229 18.2578 1.36719C18.9714 1.96094 19.3958 2.78125 19.5312 3.82812H18.5703C18.4297 2.99479 18.0885 2.36458 17.5469 1.9375C17.0104 1.50521 16.3073 1.28906 15.4375 1.28906C14.375 1.28906 13.5339 1.66667 12.9141 2.42188C12.2943 3.17708 11.9844 4.24219 11.9844 5.61719V6.96094C11.9844 7.82552 12.1302 8.59115 12.4219 9.25781C12.7188 9.91927 13.1406 10.4323 13.6875 10.7969C14.2396 11.1615 14.8724 11.3438 15.5859 11.3438C16.4141 11.3438 17.125 11.2135 17.7188 10.9531C18.1042 10.7812 18.3906 10.5807 18.5781 10.3516V7.41406H15.5234V6.60156H19.5391V10.6484ZM25.7266 5.4375L28.9297 0.625H30.0781L26.3125 6.23438L30.1953 12H29.0391L25.7266 7.03125L22.3984 12H21.2578L25.1484 6.23438L21.375 0.625H22.5234L25.7266 5.4375Z" fill="white"/>
</svg>
