<svg width="38" height="35" viewBox="0 0 38 35" fill="none" xmlns="http://www.w3.org/2000/svg">
<path d="M35.4665 15.7506H34.2001V6.41744C34.2001 6.09502 33.9164 5.83415 33.5666 5.83415H29.7305L28.471 2.15912C28.4182 2.00574 28.2994 1.8794 28.1429 1.80936C27.9857 1.73917 27.8042 1.7323 27.641 1.78947L22.4834 3.59986L20.1667 0.269773C20.0756 0.13861 19.9313 0.0461974 19.7657 0.013882C19.6006 -0.0203343 19.4271 0.00934909 19.2866 0.0957671L9.77759 5.83415H4.43323C1.9861 5.83664 0.00301646 7.66341 0 9.91729V30.9167C0.00301646 33.1706 1.9861 34.9974 4.43323 35H33.5666C33.9164 35 34.2001 34.7387 34.2001 34.4166V27.4167H35.4665C36.8658 27.4167 38 26.3721 38 25.0837V18.0839C38 16.7949 36.8658 15.7506 35.4665 15.7506ZM35.4665 16.9172C36.1662 16.9172 36.7332 17.4392 36.7332 18.0839C36.7332 18.7281 36.1662 19.2503 35.4665 19.2503H34.2001V16.9172H35.4665ZM32.9332 7.00087V12.8339H32.1309L30.1309 7.00087H32.9332ZM30.8031 12.8339H28.9568L27.2009 7.98291C27.1149 7.74471 26.8728 7.58372 26.6 7.58386C25.9567 7.58576 25.3392 7.35034 24.8856 6.93024L24.5142 6.58823C24.3396 6.42724 24.0789 6.37445 23.8468 6.45341L5.1086 12.8339H4.43323C3.58878 12.8337 2.77942 12.5223 2.18645 11.9687L27.4654 3.10241L30.8031 12.8339ZM27.6218 12.8339H8.76041L23.906 7.67715L23.9898 7.75494C24.5669 8.28939 25.3218 8.63068 26.1339 8.72353L27.6218 12.8339ZM19.4434 1.39555L21.2717 4.02566L6.50014 9.20679L19.4434 1.39555ZM4.43323 7.00087H7.84405L1.45123 10.8585C1.33327 10.5566 1.27072 10.2383 1.26675 9.91729C1.26897 8.30738 2.68544 7.00248 4.43323 7.00087ZM32.9332 33.8331H4.43323C2.68544 33.8312 1.26897 32.5265 1.26675 30.9167V12.7755C1.27278 12.7806 1.27929 12.7855 1.28501 12.7913C1.33454 12.8368 1.38693 12.8786 1.43853 12.9219C1.48965 12.965 1.54474 13.0145 1.6011 13.0577C1.65762 13.101 1.71207 13.1358 1.76764 13.1744C1.82337 13.213 1.88306 13.2572 1.94371 13.2961C2.00451 13.3342 2.06341 13.3639 2.12311 13.398C2.1828 13.4319 2.2463 13.4702 2.31298 13.503C2.37966 13.5354 2.44285 13.5612 2.5081 13.591C2.57335 13.6205 2.63495 13.6494 2.70195 13.6773C2.7691 13.7052 2.84594 13.7268 2.91786 13.7507C2.9901 13.7747 3.04455 13.7975 3.11123 13.8159C3.19077 13.8394 3.27285 13.856 3.35461 13.8744C3.41812 13.8883 3.47591 13.9061 3.53782 13.9177C3.63102 13.9357 3.72786 13.946 3.82232 13.9585C3.87535 13.965 3.92695 13.9753 3.98076 13.9805C4.13095 13.9943 4.28209 14.0009 4.43323 14.0007H5.25704L5.26609 14.023L5.33388 14.0007H32.9332V19.2503H25.9666C23.5185 19.2503 21.5333 21.0784 21.5333 23.3336C21.5333 25.5886 23.5185 27.4167 25.9666 27.4167H32.9332V33.8331ZM36.7332 25.0837C36.7332 25.728 36.1662 26.2501 35.4665 26.2501H25.9666C24.2178 26.2501 22.8001 24.9444 22.8001 23.3336C22.8001 21.7226 24.2178 20.4172 25.9666 20.4172H35.4665C35.6195 20.4157 35.7713 20.4014 35.9215 20.3745C35.9574 20.3688 35.9931 20.3622 36.0285 20.3543C36.1717 20.3258 36.3121 20.2854 36.4476 20.2345L36.4692 20.225C36.5599 20.1896 36.6478 20.1487 36.7332 20.1038V25.0837Z" fill="black"/>
<path d="M14.5582 17.1699H17.2578V18.4415H14.5582V17.1699Z" fill="black"/>
<path d="M9.15961 17.1699H11.8589V18.4415H9.15961V17.1699Z" fill="black"/>
<path d="M30.7549 17.1699H33.068V18.4415H30.7549V17.1699Z" fill="black"/>
<path d="M25.3562 17.1699H28.0555V18.4415H25.3562V17.1699Z" fill="black"/>
<path d="M3.92764 17.0807L3.6118 18.3143C3.97619 18.3974 4.34938 18.4403 4.72393 18.4415H6.45979V17.1699H4.72393C4.45596 17.1692 4.18867 17.1394 3.92764 17.0807Z" fill="black"/>
<path d="M19.9571 17.1699H22.6566V18.4415H19.9571V17.1699Z" fill="black"/>
<path d="M3.92764 33.6136L3.6118 34.847C3.97619 34.9302 4.34938 34.9732 4.72393 34.9745H6.45979V33.7027H4.72393C4.45596 33.7019 4.18867 33.6725 3.92764 33.6136Z" fill="black"/>
<path d="M30.7549 33.7027H33.068V34.9745H30.7549V33.7027Z" fill="black"/>
<path d="M14.5582 33.7027H17.2578V34.9745H14.5582V33.7027Z" fill="black"/>
<path d="M25.3562 33.7027H28.0555V34.9745H25.3562V33.7027Z" fill="black"/>
<path d="M9.15961 33.7027H11.8589V34.9745H9.15961V33.7027Z" fill="black"/>
<path d="M19.9571 33.7027H22.6566V34.9745H19.9571V33.7027Z" fill="black"/>
<path d="M27.6693 23.5286C26.5512 23.5286 25.6446 24.3825 25.6446 25.4361C25.6446 26.4894 26.5512 27.344 27.6693 27.344C28.7873 27.344 29.6937 26.4894 29.6937 25.4361C29.6937 24.3825 28.7873 23.5286 27.6693 23.5286ZM27.6693 26.0721C27.2967 26.0721 26.9944 25.7873 26.9944 25.4361C26.9944 25.0848 27.2967 24.8003 27.6693 24.8003C28.0419 24.8003 28.3443 25.0848 28.3443 25.4361C28.3443 25.7873 28.0419 26.0721 27.6693 26.0721Z" fill="black"/>
</svg>
